<svg width="24" height="24" viewBox="0 0 24 24" fill="none" xmlns="http://www.w3.org/2000/svg">
<path d="M20 12.5V17.25C20.0078 17.3612 19.9889 17.4726 19.945 17.575C19.8786 17.7361 19.7545 17.8666 19.597 17.941L14.135 20.521C13.4674 20.8362 12.7383 20.9997 12 20.9997C11.2617 20.9997 10.5326 20.8362 9.865 20.521L4.403 17.941C4.2741 17.8799 4.16677 17.7812 4.09517 17.6578C4.02358 17.5344 3.99109 17.3922 4.002 17.25V12.5M10 5C10 5.53043 10.2107 6.03914 10.5858 6.41421C10.9609 6.78929 11.4696 7 12 7C12.5304 7 13.0391 6.78929 13.4142 6.41421C13.7893 6.03914 14 5.53043 14 5C14 4.46957 13.7893 3.96086 13.4142 3.58579C13.0391 3.21071 12.5304 3 12 3C11.4696 3 10.9609 3.21071 10.5858 3.58579C10.2107 3.96086 10 4.46957 10 5Z" stroke="white" stroke-width="2" stroke-linecap="round" stroke-linejoin="round"/>
<path d="M12 7V13M4.431 12.216L10.065 9.884C11.3043 9.3723 12.6957 9.3723 13.935 9.884L19.569 12.216C19.6938 12.267 19.801 12.3534 19.8774 12.4644C19.9538 12.5755 19.9961 12.7065 19.9991 12.8413C20.0021 12.9761 19.9656 13.1088 19.8942 13.2232C19.8227 13.3375 19.7194 13.4285 19.597 13.485L14.135 16.028C13.4663 16.3392 12.7376 16.5005 12 16.5005C11.2624 16.5005 10.5337 16.3392 9.865 16.028L4.403 13.485C4.27989 13.429 4.17592 13.3381 4.10397 13.2236C4.03202 13.1091 3.99526 12.976 3.99824 12.8408C4.00122 12.7056 4.04382 12.5742 4.12074 12.463C4.19767 12.3517 4.30554 12.2665 4.431 12.216Z" stroke="white" stroke-width="2" stroke-linecap="round" stroke-linejoin="round"/>
</svg>
