<svg width="24" height="24" viewBox="0 0 24 24" fill="none" xmlns="http://www.w3.org/2000/svg">
<g clip-path="url(#clip0_16_7)">
<path d="M3.636 11.2929C3.44853 11.4804 3.34322 11.7347 3.34322 11.9999C3.34322 12.2651 3.44853 12.5194 3.636 12.7069L9.293 18.3639C9.38525 18.4594 9.49559 18.5356 9.6176 18.588C9.7396 18.6404 9.87082 18.668 10.0036 18.6692C10.1364 18.6703 10.2681 18.645 10.391 18.5947C10.5139 18.5444 10.6255 18.4702 10.7194 18.3763C10.8133 18.2824 10.8875 18.1708 10.9378 18.0479C10.9881 17.925 11.0134 17.7933 11.0123 17.6605C11.0111 17.5277 10.9835 17.3965 10.9311 17.2745C10.8787 17.1525 10.8025 17.0421 10.707 16.9499L6.757 12.9999H20C20.2652 12.9999 20.5196 12.8945 20.7071 12.707C20.8946 12.5195 21 12.2651 21 11.9999C21 11.7347 20.8946 11.4803 20.7071 11.2928C20.5196 11.1053 20.2652 10.9999 20 10.9999H6.757L10.707 7.0499C10.8892 6.8613 10.99 6.6087 10.9877 6.3465C10.9854 6.0843 10.8802 5.83349 10.6948 5.64808C10.5094 5.46267 10.2586 5.3575 9.9964 5.35523C9.73421 5.35295 9.4816 5.45374 9.293 5.6359L3.636 11.2929Z" fill="white"/>
</g>
<defs>
<clipPath id="clip0_16_7">
<rect width="24" height="24" fill="white" transform="matrix(0 -1 1 0 0 24)"/>
</clipPath>
</defs>
</svg>
