<svg width="31" height="30" viewBox="0 0 31 30" fill="none" xmlns="http://www.w3.org/2000/svg">
<path d="M2 11.8523C2 16.7153 6.02 19.3063 8.962 21.6263C10 22.4443 11 23.2153 12 23.2153C11 23.2151 13 23.2153 12 23.2153C12 21.2153 12 13.0782 12 8.21621C12 13.2151 12 13.2151 12 8.21621C7.5 3.54021 2 6.98926 2 11.8523Z" fill="white"/>
<path fill-rule="evenodd" clip-rule="evenodd" d="M26.4677 19.2744C26.299 19.2733 26.1337 19.322 25.9925 19.4144C25.8513 19.5067 25.7405 19.6387 25.674 19.7937C25.5207 20.1539 25.2565 20.4547 24.9214 20.656C24.297 21.0311 23.1716 21.0311 22.5461 20.656C22.211 20.4546 21.9478 20.1529 21.7935 19.7937C21.7273 19.6396 21.6174 19.5084 21.4773 19.4161C21.3373 19.3239 21.1733 19.2748 21.0056 19.2748C20.8379 19.2748 20.6739 19.3239 20.5338 19.4161C20.3938 19.5084 20.2838 19.6396 20.2176 19.7937C20.0632 20.1539 19.8002 20.4547 19.4651 20.656C18.8406 21.0311 17.7141 21.0311 17.0897 20.656C16.7546 20.4547 16.4904 20.1528 16.3372 19.7937C16.2707 19.6386 16.16 19.5066 16.0189 19.4142C15.8778 19.3217 15.7126 19.273 15.5439 19.2739C15.3752 19.2749 15.2105 19.3256 15.0705 19.4197C14.9305 19.5137 14.8213 19.647 14.7566 19.8028C14.6587 20.0365 14.5101 20.2457 14.3216 20.4151C14.1332 20.5846 13.9095 20.7102 13.6667 20.7829C13.5588 20.8151 13.4582 20.8682 13.3707 20.9392C13.2832 21.0102 13.2106 21.0977 13.157 21.1968C13.1034 21.2959 13.0698 21.4046 13.0581 21.5166C13.0465 21.6287 13.0571 21.742 13.0892 21.8499C13.1213 21.9579 13.1744 22.0585 13.2455 22.146C13.3165 22.2335 13.404 22.3061 13.5031 22.3597C13.6022 22.4133 13.7109 22.4469 13.8229 22.4586C13.935 22.4702 14.0482 22.4596 14.1562 22.4275C14.6777 22.2722 15.1548 21.995 15.5481 21.6189C15.9068 21.9689 16.3351 22.2396 16.8052 22.4136C17.2753 22.5876 17.7766 22.6609 18.2768 22.6288C18.777 22.6609 19.2784 22.5876 19.7484 22.4136C20.2185 22.2396 20.6468 21.9689 21.0056 21.6189C21.3644 21.9689 21.7927 22.2396 22.2627 22.4136C22.7328 22.5876 23.2341 22.6609 23.7343 22.6288C24.2345 22.6609 24.7359 22.5876 25.2059 22.4136C25.676 22.2396 26.1043 21.9689 26.4631 21.6189C26.8563 21.995 27.3334 22.2722 27.8549 22.4275C27.9629 22.4596 28.0761 22.4702 28.1882 22.4586C28.3003 22.4469 28.4089 22.4133 28.508 22.3597C28.6071 22.3061 28.6947 22.2335 28.7657 22.146C28.8367 22.0585 28.8898 21.9579 28.9219 21.8499C28.9541 21.742 28.9646 21.6287 28.953 21.5166C28.9414 21.4046 28.9078 21.2959 28.8541 21.1968C28.8005 21.0977 28.7279 21.0102 28.6404 20.9392C28.553 20.8682 28.4524 20.8151 28.3444 20.7829C28.1016 20.7102 27.8779 20.5846 27.6895 20.4151C27.501 20.2457 27.3525 20.0365 27.2545 19.8028C27.1898 19.6472 27.0806 19.5141 26.9407 19.4201C26.8007 19.3261 26.6362 19.2755 26.4677 19.2744Z" fill="white"/>
<path fill-rule="evenodd" clip-rule="evenodd" d="M19.2901 6.71509C22.8469 6.71509 24.2055 9.28602 24.4285 10.6241C24.4451 10.7241 24.4348 10.8268 24.3986 10.9215C24.3625 11.0163 24.3018 11.0997 24.2227 11.1632C24.1437 11.2268 24.0492 11.2682 23.9489 11.2832C23.8486 11.2982 23.7461 11.2862 23.652 11.2485C23.0092 10.9912 22.5106 10.9466 22.1309 11.0129C21.7592 11.0781 21.4607 11.2577 21.216 11.5287C20.7071 12.0948 20.4337 13.0727 20.4337 14.1488C20.4337 15.4938 21.8347 17.008 23.8647 17.008C24.8448 17.008 25.8329 16.4899 26.1978 15.639C26.2419 15.5354 26.3157 15.4472 26.4098 15.3853C26.504 15.3235 26.6143 15.2908 26.7269 15.2914C26.8395 15.292 26.9494 15.3259 27.0429 15.3888C27.1363 15.4516 27.2092 15.5407 27.2522 15.6447C27.4924 16.2234 28.0013 16.682 28.6017 16.8604C28.7199 16.8954 28.8236 16.9677 28.8973 17.0664C28.9711 17.1651 29.011 17.285 29.0111 17.4082V19.508C28.9273 19.4714 28.8407 19.4397 28.7515 19.4131C28.7118 19.4015 28.6753 19.381 28.6446 19.3533C28.6139 19.3256 28.5898 19.2913 28.5743 19.253C28.4016 18.8377 28.1103 18.4825 27.7369 18.2319C27.3634 17.9813 26.9244 17.8463 26.4747 17.8439C26.0249 17.8414 25.5845 17.9716 25.2083 18.2182C24.8322 18.4647 24.5371 18.8167 24.3599 19.2301C24.323 19.3125 24.2625 19.3821 24.1861 19.4302C24.1838 19.4314 24.1438 19.4531 24.0545 19.4737C23.8436 19.5202 23.625 19.5202 23.4141 19.4737C23.3687 19.4646 23.3245 19.45 23.2826 19.4302C23.2059 19.3826 23.145 19.3134 23.1076 19.2312C22.9312 18.82 22.638 18.4695 22.2644 18.2232C21.8907 17.977 21.4531 17.8457 21.0056 17.8457C20.5581 17.8457 20.1204 17.977 19.7468 18.2232C19.3731 18.4695 19.08 18.82 18.9035 19.2312C18.8661 19.3134 18.8052 19.3826 18.7286 19.4302C18.7263 19.4314 18.6862 19.4531 18.597 19.4737C18.3861 19.5202 18.1675 19.5202 17.9566 19.4737C17.8674 19.4531 17.8274 19.4314 17.8251 19.4302C17.7488 19.3824 17.6883 19.3132 17.6512 19.2312C17.4741 18.8178 17.179 18.4659 16.8028 18.2193C16.4267 17.9728 15.9862 17.8426 15.5365 17.845C15.0867 17.8474 14.6477 17.9824 14.2743 18.233C13.9008 18.4837 13.6095 18.8388 13.4369 19.2541C13.4213 19.2924 13.3973 19.3267 13.3666 19.3544C13.3359 19.3822 13.2993 19.4026 13.2596 19.4142C13.1704 19.4401 13.0839 19.4714 13 19.508V10.7179C13 10.6289 13.0208 10.5412 13.0606 10.4617C13.6919 9.20025 15.7985 6.71509 19.2901 6.71509ZM13.1544 22.0092C13.0947 21.897 13.0607 21.773 13.0548 21.6461C13.049 21.5192 13.0713 21.3925 13.1204 21.2753C13.1694 21.1581 13.2438 21.0533 13.3383 20.9684C13.4328 20.8834 13.545 20.8206 13.6668 20.7843C13.9097 20.7115 14.1334 20.5857 14.3218 20.416C14.5103 20.2463 14.6588 20.037 14.7567 19.803C14.8213 19.6473 14.9305 19.514 15.0705 19.4199C15.2105 19.3258 15.3752 19.2752 15.5439 19.2742C15.7126 19.2732 15.8778 19.322 16.0189 19.4144C16.16 19.5069 16.2707 19.6389 16.3372 19.7939C16.4914 20.1531 16.7546 20.4548 17.0897 20.6562C17.7141 21.0313 18.8395 21.0313 19.4651 20.6562C19.8001 20.4548 20.0634 20.1531 20.2176 19.7939C20.2838 19.6399 20.3938 19.5086 20.5338 19.4164C20.6739 19.3241 20.8379 19.275 21.0056 19.275C21.1733 19.275 21.3373 19.3241 21.4773 19.4164C21.6174 19.5086 21.7273 19.6399 21.7935 19.7939C21.9478 20.1531 22.211 20.4548 22.5461 20.6562C23.1705 21.0313 24.297 21.0313 24.9214 20.6562C25.2565 20.4548 25.5197 20.1531 25.674 19.7939C25.7404 19.6389 25.8511 19.5069 25.9922 19.4144C26.1333 19.322 26.2986 19.2732 26.4673 19.2742C26.6359 19.2752 26.8006 19.3258 26.9406 19.4199C27.0806 19.514 27.1898 19.6473 27.2545 19.803C27.3525 20.0368 27.501 20.2459 27.6895 20.4154C27.8779 20.5848 28.1016 20.7104 28.3444 20.7832C28.4524 20.8153 28.553 20.8684 28.6404 20.9394C28.7279 21.0104 28.8005 21.098 28.8542 21.1971C28.9078 21.2961 28.9414 21.4048 28.953 21.5169C28.9646 21.6289 28.9541 21.7422 28.9219 21.8502C28.8898 21.9582 28.8367 22.0588 28.7657 22.1462C28.6947 22.2337 28.6071 22.3063 28.508 22.3599C28.409 22.4136 28.3003 22.4472 28.1882 22.4588C28.0761 22.4704 27.9629 22.4599 27.8549 22.4277C27.3334 22.2724 26.8563 21.9952 26.4631 21.6192C26.2353 21.8447 25.9769 22.0372 25.6957 22.191C25.0973 22.5217 24.4166 22.6741 23.7343 22.6302C23.0519 22.6737 22.3713 22.5209 21.773 22.1899L21.6643 22.127C21.425 21.985 21.2037 21.8145 21.0056 21.6192C20.7781 21.8446 20.5202 22.0371 20.2393 22.191C19.6409 22.5217 18.9591 22.6741 18.2768 22.6302C17.5948 22.6735 16.9146 22.5207 16.3166 22.1899C16.0353 22.036 15.777 21.8435 15.5492 21.618L15.4691 21.6912C15.0714 22.0474 14.596 22.3059 14.0808 22.446C13.8998 22.4824 13.7119 22.4595 13.545 22.3806C13.3781 22.3016 13.2411 22.171 13.1544 22.008V22.0092Z" fill="white"/>
</svg>
